<?xml version="1.0" encoding="utf-8"?>
<!-- Generated by IcoMoon.io -->
<!DOCTYPE svg PUBLIC "-//W3C//DTD SVG 1.1//EN" "http://www.w3.org/Graphics/SVG/1.1/DTD/svg11.dtd">
<svg version="1.1" xmlns="http://www.w3.org/2000/svg" xmlns:xlink="http://www.w3.org/1999/xlink" width="16" height="16" viewBox="0 0 16 16">
<path fill="#444444" d="M2 13c0 0.553 0.447 1 1 1h4v2h-5c-1.104 0-2-0.896-2-2v-5h2v4zM2 3v4h-2v-5c0-1.104 0.896-2 2-2h5v2h-4c-0.553 0-1 0.448-1 1zM9 12h-2v-3h-3v-2h3v-3h2v3h3v2h-3v3zM14 0c1.104 0 2 0.896 2 2v5h-2v-4c0-0.552-0.447-1-1-1h-4v-2h5zM14 13v-4h2v5c0 1.104-0.896 2-2 2h-5v-2h4c0.553 0 1-0.447 1-1z"></path>
</svg>
