<?xml version="1.0" ?><!DOCTYPE svg  PUBLIC '-//W3C//DTD SVG 1.1//EN'  'http://www.w3.org/Graphics/SVG/1.1/DTD/svg11.dtd'><svg enable-background="new 0 0 128 128" id="Слой_1" version="1.1" viewBox="0 0 128 128" xml:space="preserve" xmlns="http://www.w3.org/2000/svg" xmlns:xlink="http://www.w3.org/1999/xlink"><g><g><path d="M85.446,83.682c-0.294,0-0.586-0.13-0.784-0.379c-0.343-0.433-0.271-1.062,0.162-1.404L107.391,64    L84.824,46.102c-0.433-0.343-0.505-0.972-0.162-1.404c0.344-0.434,0.973-0.506,1.405-0.162l23.555,18.682    C109.86,63.406,110,63.694,110,64s-0.14,0.594-0.378,0.783L86.067,83.465C85.883,83.611,85.664,83.682,85.446,83.682z" fill="#323638"/></g><g><path d="M42.554,83.682c-0.218,0-0.437-0.07-0.621-0.217L18.378,64.783C18.14,64.594,18,64.306,18,64    s0.14-0.594,0.378-0.783l23.555-18.682c0.433-0.344,1.062-0.271,1.405,0.162c0.343,0.433,0.271,1.062-0.162,1.404L20.609,64    l22.567,17.898c0.433,0.343,0.505,0.972,0.162,1.404C43.141,83.552,42.849,83.682,42.554,83.682z" fill="#323638"/></g><g><path d="M48.753,98.726c-0.135,0-0.273-0.027-0.405-0.086c-0.505-0.224-0.733-0.814-0.509-1.319l29.885-67.451    c0.223-0.505,0.814-0.734,1.319-0.509c0.505,0.224,0.733,0.814,0.509,1.319L49.668,98.131    C49.503,98.504,49.137,98.726,48.753,98.726z" fill="#323638"/></g></g></svg>